P1
# CREATOR: GIMP PNM Filter Version 1.1
33 29
0000000000000000011111110000000000000000000000001111111111100000000000
0000000001111000000011110000000000000000011100000000000111000000000000
0101110000000000000111000000000001011100000011111000011100000001010011
0000001111111000011000000101101100000011100001000001100001001101100000
1100000000000011000110110110000001100000000000001100110110110000011000
0000000000011011011001100001111111111000000011011011001100000110000000
0000000111100110011000011111111100000000111100110011000001100000000000
0001111001100110000001100000000000001111001100011000001100000000000011
0110011000110000001110000100000110110001100011000000111111100001100110
0011000111000000111110000111000110001100011100000000000001110000110001
1100011100000000000111000000110001110001111000000011110000000111000111
0000111111111110000000000111000111100001111111000000000000011100001111
1100011000000000000000011110000111111100000000000000000000111111000110
00000000000000000000000111111100000000000000000